<svg xmlns="http://www.w3.org/2000/svg" width="16" height="16" fill="none"><path fill="#1c1b1a" d="M0 0h16v16H0z"/><path fill="#e6e4d9" stroke="#e6e4d9" stroke-width=".1" d="m4.503 5.812.264.012h.003l.192.026q.283.052.525.172.359.18.617.457v-.528h1.418V12.2H6.07v-.49a2.3 2.3 0 0 1-.754.474l-.002.001-.017.006-.008.002h-.005q-.3.106-.618.136h-.002l-.218.009h-.002a2.7 2.7 0 0 1-1.454-.394l-.01-.007a2.7 2.7 0 0 1-.975-1.124h-.001l-.004-.008q-.306-.65-.34-1.488l-.006-.241v-.001c0-.678.115-1.268.359-1.757.241-.483.58-.857 1.016-1.114l.001-.001.003-.002.158-.087.01-.004q.594-.299 1.301-.298zm9.344-2.162v1.42h-3.703v2.054h3.002v1.395h-3.002v2.262h3.703V12.2H8.633V3.65zm-9.3 3.524c-.33 0-.59.085-.791.238a1.4 1.4 0 0 0-.47.647 2.6 2.6 0 0 0-.157.722l-.01.273q.001.555.167 1l.093.207q.15.278.388.466c.21.153.477.238.815.238l.117-.004c.267-.018.485-.1.662-.234l.083-.067q.273-.239.423-.607l.003-.008.001-.002q.138-.323.174-.704l.013-.264-.007-.216c-.031-.49-.17-.878-.4-1.18l-.003-.002.042-.029-.042.028-.002-.003-.096-.116c-.239-.251-.565-.383-1.003-.383Z"/></svg>